<svg xmlns="http://www.w3.org/2000/svg" width="44.578" height="52.834" viewBox="0 0 44.578 52.834">
    <path data-name="Path 23862" d="M42.515 12.383h-6.289a14.034 14.034 0 0 0-27.873 0H2.064A2.064 2.064 0 0 0 0 14.447V50.77a2.064 2.064 0 0 0 2.064 2.064h40.451a2.064 2.064 0 0 0 2.064-2.064V14.447a2.064 2.064 0 0 0-2.064-2.064zM22.289 4.128a9.922 9.922 0 0 1 9.768 8.255H12.521a9.922 9.922 0 0 1 9.768-8.255zm18.162 44.578H4.128v-32.2h4.128V22.7a2.064 2.064 0 1 0 4.128 0v-6.189H32.2V22.7a2.064 2.064 0 1 0 4.128 0v-6.189h4.128z"/>
</svg>
